<!--?xml version="1.0" encoding="utf-8"?-->
<!-- Generator: Adobe Illustrator 19.1.1, SVG Export Plug-In . SVG Version: 6.00 Build 0)  -->
<svg version="1.1" id="_x31_0" xmlns="http://www.w3.org/2000/svg" xmlns:xlink="http://www.w3.org/1999/xlink" x="0px" y="0px" viewBox="0 0 512 512" style="opacity: 1;" xml:space="preserve">
<style type="text/css">
	.st0{fill:#374149;}
</style>
<g>
	<path class="st0" d="M446.301,326.133c-0.027,0.019-0.055,0.035-0.078,0.05c-0.011-0.058,0-0.121-0.011-0.179
		c-43.809,29.797-117.25,43.645-190.211,43.645c-67.125,0-134.598-11.758-179.086-36.84c-0.988-0.566-2.034-1.102-3-1.68
		c-0.086-0.05-0.168-0.11-0.254-0.16c-2.672-1.602-5.25-3.246-7.711-4.934c-0.003,0.019,0,0.043-0.003,0.062
		c-0.047-0.031-0.106-0.062-0.153-0.094c-0.164,0.809-0.164,1.699-0.164,2.508V441.23C65.629,480.34,150.816,512,256,512
		c105.187,0,190.371-31.66,190.371-70.77V328.512c0-0.508-0.062-1.043-0.102-1.578C446.285,326.668,446.27,326.371,446.301,326.133z
		" style="fill: #6A91C1;"></path>
	<path class="st0" d="M445.57,139.004c-0.02,0.012-0.039,0.023-0.058,0.035c-0.012-0.055-0.016-0.114-0.032-0.168
		c-43.886,29.477-116.926,43.242-189.48,43.242c-67.086,0-134.535-11.801-179.023-36.875c-0.723-0.414-1.493-0.801-2.199-1.219
		c-0.454-0.262-0.864-0.546-1.309-0.812c-2.328-1.406-4.622-2.824-6.793-4.297c-0.004,0.015-0.004,0.035-0.008,0.05
		c-0.047-0.031-0.102-0.058-0.149-0.09c-0.566,2.266-0.89,4.535-0.89,6.801V258.39c0,0.809,0,1.699,0.164,2.508
		c0.566,6.641,3.645,12.957,8.746,18.95c4.046,4.777,9.473,9.39,16.113,13.602c32.794,21.378,94.578,35.71,165.348,35.71
		c70.774,0,132.554-14.332,165.351-35.71c6.641-4.211,12.066-8.825,16.114-13.602c5.102-5.993,8.18-12.309,8.746-18.95
		c0.16-0.809,0.16-1.699,0.16-2.508V145.672c0-2.008-0.29-4.016-0.738-6.023C445.598,139.43,445.606,139.226,445.57,139.004z" style="fill: #6A91C1;"></path>
	<path class="st0" d="M77.211,95.226c4.453,4.614,10.285,8.989,17.164,13.035C127.98,128.344,187.82,141.625,256,141.625
		c68.183,0,128.019-13.281,161.625-33.363c6.883-4.046,12.715-8.422,17.168-13.035c5.508-5.586,9.23-11.5,10.687-17.652
		c0.649-2.266,0.891-4.454,0.891-6.723C446.371,31.742,361.187,0,256,0C150.816,0,65.629,31.742,65.629,70.851
		c0,2.27,0.246,4.458,0.89,6.723C67.98,83.726,71.703,89.641,77.211,95.226z" style="fill: #6A91C1;"></path>
</g>
</svg>
